/* XPM */
static char *fda7ad6c5e064d2ab1fef18c2e3b1e3fFqQRVaxxbdae69Jk[] = {
/* columns rows colors chars-per-pixel */
"32 32 6 1 ",
"  c gray48",
". c DimGray",
"X c #5A5A5A",
"o c #4A4A4F",
"O c #3F3F45",
"+ c #353539",
/* pixels */
"oXoO++.XOoXo+OooX.  ooXXXo. ..XX",
"XooO+O.oOOooo+.    .oooXoo..XXoX",
"oOoO+OXoXoOO+X . .XoOOooOO..XXoo",
"oOO+++oXoOoO+.  .XoOOooOOO.XXooO",
"OO+O++OOOOO+O...XoOo+OO++OX.oOoO",
"++++O++OOO+++.X.oXoO+++O++oXOoOO",
"O+OOOo. ..XXOX.XoX+O+O++++OO+++O",
"OOoOo  X.XXooOXoooO+OOO+++O++OoO",
"X.  .XX.XooXOOOoOO++O++++OX  .XO",
"    ..XXoOoo+OoOO+++++O+o. .  Xo",
". .X.XooXOOO++OO++. .O+O    .XoO",
"X.XX.ooOooO+O+O+X  ..XOo. .XXooO",
"..oXXoOOOOO+++o . XoXXOO..XooOOo",
"X.XoOoOoOO++++X. .oXoX+oX.oXooOo",
"oXoO+O+OO+O++O..Xooooo+OXXOooO++",
"OoOXXo++OO+++oX.XXoOoo+OXooOo++O",
"oX . .OOOoXXXo.XoXOoooO+ooOOOO+O",
".   .XoOoXXoXXXXoOOOoOO+OOO+O++O",
"  .XXXoOoOoXoXXoOOooOO+++OOO+oo.",
"..XXoXoOoooXXoXoooooOO++++++ooX ",
".XooXoo+OoOooOoooOoOO+X. .OoOoX.",
"XXXoooO+OOooO+OoooOOX.  XXoOoXo.",
".XoOoOO+++O+O+OoOOOO ..Xoo+OoooX",
"XoXoOo+O+++++++OXXOO.XooXoO+oOoX",
"oXOoooO+O++++X.. .oOX.OooO++ooOo",
"ooOOoOOOOO++..    XOXooOOO++OoOO",
"OOO+OO+OoXo+  .X..ooOO+O+++OOO++",
"OO++++OX..XO. X..XXoo++++++OO++O",
"OO+OOoX   Xo .XoXoXXOO++++Oooooo",
"..o+oo. ..Xo.XXXooXoO+++OXXXoX .",
".Xo+Oo .X.XOoXXooOoO++oXXXX.  . ",
"XXo++O XXXoO+oooOOO+OoXXoX   ..X"
};
