/* XPM */
static char *a580b43cdfe04710b2684634df4462fezjK2rUwgq30WALsV[] = {
/* columns rows colors chars-per-pixel */
"32 32 11 1 ",
"  c gray71",
". c gray65",
"X c #888788",
"o c #7A8F55",
"O c #738552",
"+ c #6E6D6D",
"@ c #627941",
"# c #5A6D41",
"$ c gray38",
"% c #525D39",
"& c gray32",
/* pixels */
"##%%XX.X%#@#@#%#OoO@%%+X..  .XOO",
"@%%XX...O%###%##ooO@@@%+X.. ..O@",
"@%#o  .XXX%%%#@#Oo@@@X%#++XX.XX%",
"%%o . .X.X+%#@ooOOO@XX$%%&X+XX++",
"%+...X..X+%%@O@OOO##X+$@#%$++$+$",
"$+X.X.XXX+$%O@O@OX#X+#%@@#%%+&$&",
"&$+X.XX+#%%#X@##@XX+$%##O@@%%%%%",
"$$$$X++$%%+$+X#@+++$$##@oO@@@%@%",
"%$$+%%%O X.+&$@@$+$$XO@@OoOO@@##",
"$&$%@OO.. .X$$#@+$&$..@O@O@O@@@#",
" X+%oooO . .X$&#$$$XXXO.@.O@@#+X",
". X%%oO@O..X.+$&&&$+X.O@.X@+##X.",
".XX#%@@#@.XXX++$%%%##XXXX+$+$$. ",
"X.XX%#@@XX.X+X$#%##%%#.X$+X+&$X.",
".XX+#%#%@+X+X+%%#OO@@%#++XX$&X+X",
"XX+#%%%#%X+++%%#oOoO@@%%+X+&$+$X",
"++#%OoOo%%%#%%#OO@O@@OO@%#$+&$+$",
"%+%@oOoOO##%%$@X@X@#XO@##%$%%%&+",
"@%@OOO@O#@OO#$+XX.XX##@@#%###%%$",
"@$@@O@O@@@#@#%$$XX+##@#@%##@@@%%",
".%@@@@#@#%%%+$&$$+X+$$#%%#@@O@O.",
" X%#@#@###%$@%@%&$+$$##%#@@O@O .",
"XX$#%%##+#%%%@oOOO$+&%%##@.@  ..",
"XX+%%+##%%##@oOoOOO$$&%#XXX.X.XX",
"X$%##oO@@%%#oo@O@@OO+$$$+X+XXXX+",
"+%##OoOOX+%#oOO@@X@+X+$%%+XX++X+",
"%%oO#OO@+X$%OO@XO++X+X+$%%%%X+$+",
"%@OOOX@@XX+%#O@++X+XX++&%%$$+X+$",
"OOOX@X++++%+%#$+++X+$+&%+$+$@%%%",
"+O@@X+X+X++$%%$+$XX++$$+..X+$@%%",
"%+XX++%X+$###%%$++$+$+XX. ..X+@@",
"%%+++++%#%##%%%%%$&&++X.  .X.X+%"
};
