/* XPM */
static char *_911531f0d354479fd48fcfdc0f63960amH8z0wLeeDk38bv[] = {
/* columns rows colors chars-per-pixel */
"32 32 7 1 ",
"  c #854242",
". c #723232",
"X c #652828",
"o c #572121",
"O c #501B1B",
"+ c #511515",
"@ c #411616",
/* pixels */
"++oo+OoXXoOO..XX.X.o+OXX.X.XooO+",
"+oOoooOooo+OX ...oXo@+oXX.X.XooO",
"+oXXoXoO+O@+oX..XXX@+@@oXXXXo@@o",
"oX.XXXXooo+++OXXXoOO+O+OoXXOO+oX",
".XXX.oXXo+O@+O+oOooOoo@+@OO@oXXX",
"X...XXXoXoO@O+OO+oX.oO++@O+@o..X",
". .X.. XX+OOooXXXoo. .oo+OooOo..",
"....X X.X+@oXX.X..XX. Xo@+oXO@oX",
"X. ....oXO+XX.  ...Xo.XX++X.oOOo",
"o.  .XXXOOo..    . .XooO@OX XX+O",
"oX..X.Xo+@X. . .. .XXoO+OXX...oo",
"+oX..XoO+@X.. . .X.XoOO@XX....XX",
"+oX.XXoO@@.X..X. .XOO+@+XX. . .X",
"X++ooOO@@o.XX...XXo++OO+oXX.  ..",
".XO++@+@+OX.XXXOo++@OooO+oXX . .",
"X.XO@OO+OOO..Xo++@+OoX.o@OoX. ..",
".XXo+X..X+@+XoO+++oXX...OoOoX..X",
"XoOoX..X.XOO++O@OoX. .X.XO+OoXX.",
"++oX..  ..XO@@@OXO. .X...Xo@OooX",
"OoX. . X ..X+@OXX.....X.Xo+O++Oo",
"oX.X... .XXX++OO.. . XXXXOO@@OO+",
"ooXoX.....XO+O@X......XoO+@@oO@O",
"XoooXX..XXOOO@@+oX.XXXo+O@OoOoOO",
"XoOOooXXX+@O+O+@+oXXXO++oOoX.Xoo",
"XooXoOOoO@ooXO@O+O+oO+@o.X..X.OX",
"oOo.X.oOOX. Xo@@OO++@@ooX.. .XXX",
"OoX.XXOoX  ..o++@@@@+ooX. ....XX",
"oX... X......X@+@+OOooXX.. .X.Xo",
"O@XXX.. .. .XoOoOO@+XX..  .X.XXX",
"OooX.X... .XOOoXo+@+XXXX.X..XoXo",
"ooOXX.X...Xoo.XXXO+@+Xo....XXooo",
"+OoXoX..XXoOoX..XXoO++oX.. .XoOO"
};
